<svg width="43" height="44" viewBox="0 0 43 44" fill="none" xmlns="http://www.w3.org/2000/svg">
<path d="M42.2383 22.0289C42.2383 20.257 42.0946 18.964 41.7834 17.6232H21.5503V25.6205H33.4267C33.1873 27.608 31.8943 30.6011 29.0209 32.6123L28.9806 32.88L35.378 37.836L35.8212 37.8802C39.8917 34.1209 42.2383 28.5897 42.2383 22.0289Z" fill="#4285F4"/>
<path d="M21.5503 43.1002C27.3687 43.1002 32.2533 41.1845 35.8212 37.8803L29.0209 32.6124C27.2011 33.8814 24.7588 34.7674 21.5503 34.7674C15.8515 34.7674 11.0148 31.0082 9.29059 25.8123L9.03786 25.8337L2.38582 30.9818L2.29883 31.2236C5.84258 38.2633 13.1217 43.1002 21.5503 43.1002Z" fill="#34A853"/>
<path d="M9.29038 25.8122C8.83544 24.4714 8.57215 23.0346 8.57215 21.5501C8.57215 20.0654 8.83544 18.6288 9.26644 17.288L9.25439 17.0024L2.51899 11.7716L2.29862 11.8764C0.838067 14.7977 0 18.0782 0 21.5501C0 25.022 0.838067 28.3023 2.29862 31.2236L9.29038 25.8122Z" fill="#FBBC05"/>
<path d="M21.5503 8.33263C25.5968 8.33263 28.3264 10.0806 29.8829 11.5413L35.9648 5.60301C32.2295 2.13107 27.3687 0 21.5503 0C13.1217 0 5.84258 4.83675 2.29883 11.8764L9.26665 17.2879C11.0148 12.092 15.8515 8.33263 21.5503 8.33263Z" fill="#EB4335"/>
</svg>
